<?xml version="1.0" standalone="no"?>
<!DOCTYPE svg PUBLIC "-//W3C//DTD SVG 20010904//EN"
 "http://www.w3.org/TR/2001/REC-SVG-20010904/DTD/svg10.dtd">
<svg version="1.0" xmlns="http://www.w3.org/2000/svg"
 width="400.000000pt" height="400.000000pt" viewBox="0 0 400.000000 400.000000"
 preserveAspectRatio="xMidYMid meet">
<metadata>
Created by potrace 1.14, written by Peter Selinger 2001-2017
</metadata>
<g transform="translate(0.000000,400.000000) scale(0.100000,-0.100000)"
fill="#000000" stroke="none">
<path d="M1430 3386 c-238 -35 -387 -68 -605 -134 -179 -55 -381 -139 -246
-102 74 20 295 30 429 20 180 -14 333 -60 497 -147 90 -48 253 -194 334 -300
54 -71 136 -243 159 -333 43 -169 25 -400 -42 -553 -14 -32 -26 -60 -26 -62 0
-2 57 55 128 127 70 71 170 174 222 227 52 54 223 230 380 391 157 162 356
367 443 456 211 216 220 226 205 235 -7 4 -53 16 -103 28 -49 12 -126 30 -170
41 -160 39 -368 73 -644 105 -185 22 -253 25 -510 24 -249 -1 -320 -5 -451
-23z"/>
<path d="M3175 2888 c-239 -245 -873 -895 -1010 -1034 -270 -275 -329 -337
-320 -333 6 3 39 18 75 35 108 51 141 63 244 89 137 35 307 36 422 1 126 -38
278 -135 359 -231 88 -103 185 -311 185 -395 0 -48 14 -42 62 23 95 130 184
316 231 487 50 179 87 437 87 607 0 115 -28 403 -51 523 -35 183 -87 391 -100
404 -3 4 -86 -76 -184 -176z"/>
<path d="M1535 1485 c-59 -12 -244 -72 -308 -99 -17 -8 -48 -21 -67 -29 -19
-9 -62 -25 -95 -37 -33 -12 -79 -30 -101 -40 -23 -11 -70 -29 -105 -40 -77
-26 -82 -30 -32 -23 81 10 254 -34 310 -80 97 -80 117 -245 68 -541 -14 -82
-23 -151 -20 -154 3 -3 5 -1 5 5 0 5 25 42 55 81 30 40 55 74 55 76 0 3 21 35
48 71 59 83 104 154 178 275 31 52 64 106 73 120 67 108 131 277 131 346 0 49
-2 55 -30 69 -34 17 -81 18 -165 0z"/>
</g>
</svg>
