<?xml version="1.0" encoding="UTF-8" standalone="no"?>
<svg
   version="1.0"
   width="400.000000pt"
   height="400.000000pt"
   viewBox="0 0 400.000000 400.000000"
   preserveAspectRatio="xMidYMid meet"
   id="svg3"
   sodipodi:docname="logo.svg"
   inkscape:export-filename="logo.svg"
   inkscape:export-xdpi="96"
   inkscape:export-ydpi="96"
   inkscape:version="1.3.2 (091e20e, 2023-11-25, custom)"
   xmlns:inkscape="http://www.inkscape.org/namespaces/inkscape"
   xmlns:sodipodi="http://sodipodi.sourceforge.net/DTD/sodipodi-0.dtd"
   xmlns="http://www.w3.org/2000/svg"
   xmlns:svg="http://www.w3.org/2000/svg">
  <defs
     id="defs3" />
  <sodipodi:namedview
     id="namedview3"
     pagecolor="#ffffff"
     bordercolor="#000000"
     borderopacity="0.25"
     inkscape:showpageshadow="2"
     inkscape:pageopacity="0.0"
     inkscape:pagecheckerboard="0"
     inkscape:deskcolor="#d1d1d1"
     inkscape:document-units="pt"
     inkscape:zoom="1.0831992"
     inkscape:cx="285.72768"
     inkscape:cy="241.41451"
     inkscape:window-width="1920"
     inkscape:window-height="1094"
     inkscape:window-x="-11"
     inkscape:window-y="-11"
     inkscape:window-maximized="1"
     inkscape:current-layer="g3" />
  <metadata
     id="metadata1">
Created by potrace 1.14, written by Peter Selinger 2001-2017
</metadata>
  <g
     transform="translate(0.000000,400.000000) scale(0.100000,-0.100000)"
     fill="#000000"
     stroke="none"
     id="g3">
    <circle
       style="fill:#ffffff;fill-opacity:1;stroke-width:7.67862"
       id="path4"
       cx="2000"
       cy="-2000"
       transform="scale(1,-1)"
       r="1995" />
    <path
       d="m 1474.2211,3276.9461 c -220.2362,-32.3877 -358.1152,-62.9247 -559.84411,-123.9986 -165.63981,-50.8949 -352.56295,-128.6253 -227.63907,-94.3869 68.47679,18.5073 272.98182,27.7609 396.98038,18.5073 166.5651,-12.9551 308.1455,-55.5218 459.9049,-136.0283 83.2826,-44.4174 234.1166,-179.5202 309.071,-277.6086 49.9695,-65.7007 125.8492,-224.863 147.1325,-308.1456 39.7906,-156.3862 23.1341,-370.1448 -38.8652,-511.7252 -12.9551,-29.6116 -24.0594,-55.5217 -24.0594,-57.3725 0,-1.8507 52.7456,50.895 118.4463,117.521 64.7754,65.7007 157.3116,161.013 205.4304,210.0572 48.1189,49.9696 206.3558,212.8333 351.6376,361.8166 145.2819,149.9087 329.4289,339.6079 409.9354,421.9651 195.2514,199.8782 203.5797,209.1318 189.6993,217.4601 -6.4776,3.7014 -49.0442,14.8058 -95.3123,25.9101 -45.3428,11.1044 -116.5957,27.7609 -157.3116,37.9399 -148.0579,36.0891 -340.5332,67.5514 -595.9332,97.163 -171.192,20.358 -234.1166,23.1341 -471.9346,22.2087 -230.4152,-0.9254 -296.1159,-4.6268 -417.3383,-21.2833 z"
       id="path1"
       style="fill:#a60503;fill-opacity:1;stroke-width:0.925362" />
    <path
       d="m 3088.9779,2816.1157 c -221.1615,-226.7137 -807.8411,-828.199 -934.6157,-956.8244 -249.8478,-254.4745 -304.4441,-311.847 -296.1159,-308.1455 5.5522,2.7761 36.0891,16.6565 69.4022,32.3876 99.9391,47.1935 130.476,58.2979 225.7883,82.3573 126.7746,32.3876 284.0862,33.313 390.5028,0.9253 116.5957,-35.1637 257.2507,-124.9239 332.205,-213.7586 81.4319,-95.3123 171.192,-287.7876 171.192,-365.518 0,-44.4174 12.9551,-38.8652 57.3725,21.2833 87.9094,120.2971 170.2666,292.4144 213.7586,450.6513 46.2681,165.6398 80.5065,404.3833 80.5065,561.6948 0,106.4167 -25.9101,372.9209 -47.1935,483.9644 -32.3876,169.3413 -80.5065,361.8166 -92.5362,373.8463 -2.7761,3.7014 -79.5811,-70.3275 -170.2666,-162.8638 z"
       id="path2"
       style="fill:#a60503;fill-opacity:1;stroke-width:0.925362" />
    <path
       d="m 1571.3841,1517.8327 c -54.5964,-11.1043 -225.7884,-66.626 -285.0115,-91.6108 -15.7312,-7.4029 -44.4174,-19.4326 -61.9993,-26.8355 -17.5819,-8.3283 -57.3725,-23.1341 -87.9094,-34.2384 -30.537,-11.1044 -73.1036,-27.7609 -93.4616,-37.0145 -21.2833,-10.179 -64.77532,-26.8355 -97.163,-37.0145 -71.25288,-24.0594 -75.87969,-27.7608 -29.61158,-21.2833 74.95433,9.2536 235.04198,-31.4623 286.86228,-74.029 89.7601,-74.0289 108.2673,-226.71369 62.9246,-500.62086 -12.9551,-75.8797 -21.2833,-139.72968 -18.5073,-142.50577 2.7761,-2.77608 4.6269,-0.92536 4.6269,4.62681 0,4.62682 23.134,38.86521 50.8949,74.95433 27.7608,37.01449 50.8949,68.4768 50.8949,70.32752 0,2.77609 19.4326,32.38768 44.4174,65.70071 54.5963,76.80505 96.2376,142.50576 164.7144,254.47456 28.6862,48.1188 59.2232,98.0884 67.5515,111.0435 61.9992,99.9391 121.2224,256.3253 121.2224,320.1752 0,45.3428 -1.8507,50.895 -27.7609,63.85 -31.4623,15.7312 -74.9543,16.6566 -152.6847,0 z"
       id="path3"
       style="fill:#a60503;fill-opacity:1;stroke-width:0.925362" />
  </g>
</svg>
